<svg xmlns="http://www.w3.org/2000/svg" width="205" height="51"><g fill="#FFF" fill-rule="evenodd"><path d="M75.28 16.157a6.915 6.915 0 00-1.488-.209h-.19l-.026.09-.028.09c-.35 1.155-1.054 3.314-2.034 6.3l-.062.192-2.423 7.447c-1.382-5.106-2.95-10.622-3.766-13.254-.182-.45-.345-.865-.786-.865h-.03c-.586 0-1.196.136-1.866.42a3.695 3.695 0 00-.104.041l-.107.044.035.11.032.11c.045.16.097.47.127.706a673.442 673.442 0 00-3.753 12.552c-1.054-3.81-2.258-7.708-3.145-10.584l-.404-1.31c-.473-1.587-.654-2.089-1.296-2.089-.555 0-1.7.293-2.228.57l-.102.054-.099.053.04.106.042.106c1.681 4.362 3.217 9.336 4.701 14.145l1.104 3.551.027.092.028.089h.188c.6 0 1.293-.155 1.637-.302.427-.213.632-.529.858-1.304.32-1.096.953-3.187 1.62-5.404l.184-.604 1.793-5.979a908.555 908.555 0 013.761 13.357l.015.05.024.093.026.093h.195c.544 0 1.497-.164 1.789-.348.335-.224.494-.536.73-1.15 1.664-4.55 3.792-10.438 5.502-15.622.156-.513.165-.831.032-1.069-.104-.184-.281-.301-.553-.368m11.962 16.428l-.03-.06c0 .003-.05-.1-.05-.1l-.047-.101-.107.036-.11.037c-.129.046-.332.046-.455.046-.46.022-.692-.198-.715-.67-.018-1.084.01-2.573.032-3.769l.002-.152c.013-.713.023-1.329.023-1.765 0-3.137-1.682-5.01-4.5-5.01-2.098 0-4.031 1.24-4.839 1.975l-.048.042-.047.042.01.124c.044.578.265 1.028.606 1.236.183.114.498.212.94.033l.012-.006.012-.004.01-.008.013-.007c.677-.46 1.707-1.01 2.763-1.01 1.64 0 2.223 1.274 2.223 2.366v.641a28.04 28.04 0 00-1.226.252l.01-.001c-.017.002-.06.011-.204.045-1.654.394-5.531 1.317-5.531 4.447 0 1.977 1.53 3.47 3.56 3.47 1.682 0 2.964-1.023 3.547-1.587.336 1.001 1.076 1.587 2.093 1.587.687 0 1.218-.188 1.583-.56.343-.352.51-.844.496-1.462v-.054l-.015-.027-.011-.026zm-4.33-2.252c0 .449-.081.656-.161.8-.268.373-1.018 1.224-2.234 1.224-.955 0-1.626-.6-1.626-1.457v-.028c0-1.44 2.152-2.129 4.021-2.458v1.92zm8.841 3.739a59.95 59.95 0 01-.114-3.71V16.628c0-.836-.012-1.317-.087-1.62-.08-.334-.255-.483-.565-.483-.444 0-1.595.143-2.212.418l-.085.04-.082.036.008.091.009.092c.047.486.112 1.337.112 3.109V33.95c0 .41.216.626.625.626.325 0 1.657-.088 2.206-.24l.099-.026.104-.028-.01-.105-.008-.106m8.511-6.639c-.545-.317-1.133-.61-1.702-.894l-.042-.021-.8-.402c-.504-.282-1.085-.705-1.085-1.451 0-.82.675-1.37 1.682-1.37.606 0 1.358.196 1.962.51l.023.013.02.01.022.002.027.004c.315.015.59-.1.811-.335.289-.304.454-.81.407-1.228l-.005-.045-.004-.047-.036-.032-.034-.033c-.677-.647-1.819-1.036-3.05-1.036h-.029c-2.264 0-4.557 1.37-4.557 3.987 0 1.441.724 2.57 2.155 3.355.364.197.72.375 1.098.56l.076.04c.296.145.627.308.968.485.893.462 1.257.9 1.257 1.511 0 .898-.731 1.456-1.91 1.456-.94 0-2.054-.365-2.902-.951l-.06-.04-.054-.037-.063.026-.063.025c-.46.186-.692.724-.757 1.167-.073.366.079.771.396 1.053.718.609 2.025 1 3.334 1 2.36 0 4.898-1.307 4.898-4.18 0-1.307-.688-2.38-1.983-3.102m14.71 5.208l-.009-.022-.013-.026-.028-.06-.047-.106-.047-.102-.109.036-.112.037c-.128.046-.334.046-.455.046-.459.022-.69-.198-.716-.67-.016-1.01.008-2.374.03-3.578l.003-.183c.016-.81.027-1.467.027-1.925 0-3.137-1.681-5.01-4.5-5.01-2.095 0-4.028 1.24-4.839 1.975l-.047.042-.047.042.005.062.004.062c.045.578.268 1.028.609 1.236.181.116.492.213.937.033l.013-.005.01-.004.007-.005.012-.008c.682-.463 1.712-1.013 2.766-1.013 1.64 0 2.223 1.274 2.223 2.366v.641c-.36.067-.794.153-1.226.252l-.19.044c-1.655.394-5.53 1.316-5.53 4.447 0 1.977 1.53 3.47 3.557 3.47 1.68 0 2.964-1.023 3.545-1.587.335 1.001 1.077 1.587 2.094 1.587.687 0 1.22-.188 1.583-.56.341-.352.508-.844.493-1.463l-.003-.027v-.024zm-4.347-2.307c0 .444-.083.653-.162.8-.268.371-1.017 1.224-2.235 1.224-.958 0-1.626-.6-1.626-1.457v-.028c0-1.442 2.152-2.129 4.023-2.458v1.92zm8.835 3.742a62.418 62.418 0 01-.111-3.714V16.63c0-.904-.026-1.359-.09-1.624-.105-.43-.373-.48-.566-.48-.442 0-1.59.144-2.21.419l-.085.04-.084.036.01.091.008.092c.05.479.115 1.322.115 3.109v15.639c0 .41.215.626.624.626.326 0 1.657-.088 2.203-.24l.101-.026.1-.028-.007-.104-.008-.104m5.698.104l-.008-.106a59.542 59.542 0 01-.114-3.713V16.63c0-.904-.024-1.359-.091-1.624-.104-.43-.372-.48-.563-.48-.445 0-1.593.144-2.211.419l-.084.04-.085.036.01.093.01.091c.047.483.115 1.331.115 3.108v15.639c0 .41.213.626.622.626.322 0 1.655-.088 2.203-.238l.105-.028.099-.029-.008-.103m21.068-1.769c-.03.399-.345.998-.77 1.252-.57.4-2.225.886-4.19.886-6.265 0-9.455-3.761-9.455-9.231 0-5.638 4.187-9.427 9.684-9.427 2.652 0 4.588.882 5.044 1.423-.088.71-.628.942-.883.882-1.056-.57-2.566-1.023-4.302-1.023-4.13 0-7.805 2.762-7.805 8.032 0 4.757 2.876 8.091 8.234 8.091 1.65 0 3.53-.543 4.386-.969l.057.084m6.886-10.997c3.874 0 5.899 2.762 5.899 6.44 0 3.616-2.283 6.606-6.043 6.606-4.613 0-6.067-3.644-6.067-6.381 0-3.643 2.453-6.665 6.184-6.665h.027zm-.226 1.084c-2.05 0-4.358 1.651-4.358 5.33 0 3.642 2.108 5.551 4.614 5.551 1.652 0 4.244-1.14 4.244-5.444 0-2.79-1.397-5.437-4.473-5.437h-.027zm8.162 2.566c0-1.74-.055-2.594-.114-3.22.372-.17.97-.259 1.254-.259.172 0 .286.142.286 1.739.027 1.88.027 3.932.027 5.67 0 3.732 1.767 4.104 3.22 4.104 1.71 0 3.16-1.197 3.645-1.999v-8.517c0-.597.084-.738.341-.827.343-.081.883-.17 1.2-.17 0 .63-.088 2.624-.088 5.073v4.784c0 1.595.312 1.912 1.168 2.022v.117c-.03.254-.427.879-.942.879-.882 0-1.536-.826-1.564-2.194-.882 1.057-1.94 1.569-2.537 1.827a4.585 4.585 0 01-1.85.367c-2.705 0-4.046-1.795-4.046-4.584v-4.812m21.943 1.594c.028-2.707-1.138-3.934-3.076-3.934-1.796 0-3.277 1.315-3.959 2.31v8.49c0 .598-.143.682-.543.71-.315.06-.712.026-.997.06.057-.57.087-2.226.087-5.327v-4.928c0-1.198-.174-1.74-.43-1.968v-.086c.174-.168.8-.54 1.025-.54.687 0 .801 1.569.801 2.305 1.08-1.224 2.79-2.336 4.473-2.336 2.932 0 4.073 1.964 4.073 5.127v4.39c0 1.795.055 2.677.112 3.131-.571.116-.968.231-1.308.231-.23 0-.287-.115-.287-.315l.03-7.32m13.164 5.981c-.058.485-.256.969-.568 1.14-.541.343-1.68.68-2.905.68-2.165 0-6.353-.736-6.353-6.435 0-3.848 2.905-6.61 6.666-6.61 1.88 0 3.19.685 3.417 1.028 0 .54-.37 1.025-.797.911a6.128 6.128 0 00-2.878-.682c-2.876 0-4.786 2.308-4.786 5.264 0 4.364 3.19 5.246 5.13 5.246.881 0 2.193-.229 3.016-.598l.058.056m3.473-16.863c.54 0 .912.453.912.997 0 .481-.342 1.025-.94 1.025-.684 0-.969-.484-.969-.996 0-.657.513-1.026.97-1.026h.027zm.711 17.659c0 .516-.111.658-.37.715-.254.056-.627.11-1.168.143.03-1.14.088-2.795.088-4.446v-4.783c0-1.74-.057-2.594-.114-3.22.37-.17.997-.259 1.252-.259.2 0 .312.142.312 1.739v10.11zm2.704-15.151c0-1.683-.057-2.68-.116-3.25.6-.226 1.03-.283 1.282-.283.201 0 .289.146.289 1.85v13.76c0 1.396.057 2.935.083 3.701-.426.144-.91.231-1.168.231-.226 0-.37-.087-.37-.37V18.284M27.027 1.411L26.216.293 25.35 0l-.322.216c-.011.008-.15-.042-.16-.04l-1.42.54-.39.541a.15.15 0 01-.065.036l-.855.239-.064.021a.635.635 0 01-.14.24l.073.19.13.217.647.043a.152.152 0 01.102.12.16.16 0 01-.065.147l-.42.165.329.208 1.026.005c.07 0 .13.052.145.118l.07.29c-.031.021.436-.193.557-.238.635-.238 1.668-.53 2.883-.212l-.385-1.435zm-3.68.04l.039-.077.265-.174v-.18l.585-.059.416.596-1.305-.105zm2.497-.121c0 .005-.004.007-.01.047l-.097.172-.069.061-.003-.043-.125-.09-.01-.28-.037-.222.008-.172-.139-.219-.206.059-.044.058-.058-.043.048-.155a.088.088 0 01.019-.02l.22-.164a.072.072 0 01.097.004l.301.283c.01.009.017.021.023.032l.096.325c0 .007.005.016.002.024l-.016.343zm-1.733 2.738c.001-.001.004-.002.005-.005-.002.005-.005.005-.005.005"/><path d="M28.255 8.449a21.147 21.147 0 01-.091-.521l.04-2.566-.485-1.553-.107-.33c-.57-.172-2.543-.276-3.5.59a.048.048 0 00-.015.014c0 .02.001.045-.01.065l-.557.408c-.032.058-.289.223-.357.21l-.505-.04a8.034 8.034 0 01-.365-.246l-2.279-2-.635.166.024.894.542.254c.087-.085.11-.068.129-.051l1.11 1.317.28.263.503.113 1.51.022.777-.944c.011-.01.41-.127.424-.132l.872-.186.12.16.146.237-1.06.317-1.27 1.06c-.027.021-.127-.104-.16-.104l-2.077.02-2.016-.125-.42.287.69.03 1.602.102 1.588.107-1.508.171-1.377-.119-1.004-.105.27.607 3.38.69 1.016.084 1.901-.134.893-.48 1.2-1.161.225.178.027.14-.102 1.214-.185-.213-.052-.212-.146.167-.31.029-.286.307a17.85 17.85 0 01-.319.284l-.475.325c-.03.023-.733.189-.767.185l-2.223-.079-.133 1.387s.075.593.187.927l.264.385s.794-.715 2.064-.595c.241.022.912.514 1.191.754.033.03-.06.337-.06.337s-.878-.521-1.624-.511c-.353.005-.726.2-.897.315-.496.335-.854.833-.906 1.331-.07.673.266.92.266.92.005-.03.013-.066.017-.094-.002.005 0 .012-.002.02.067-.217 1.949-.18 1.977-.018.1.536.515 2.133 1.57 2.285 1.346.194 1.954-.267 2.099-.602a.148.148 0 01.178-.084l.315.09.073-2.23-1.185-4.333zm.623 5.674c-.275.675-.356-1.274-1.095-3.18-.528-1.362-.038-2.221-.12-2.858.133.701.366 1.74.417 1.874.407.998.449 1.186.647 1.942 0 0 .424 1.553.15 2.222zm-5.928.615c-.244.442-.605.824-1.167.908-.12.014-.227.022-.335.03l-.308-.242.352-.227 1.457-.469"/><path d="M16.745 11.941l-.149-.338.344-.56.087-.179.715 1.072h.575l-.907-1.233c0-.005-.363-.544-.366-.55l-.542-1.669.446-.513.18.147.437.916.252.49.48-.01-.873-2.163s.001-1.55-.011-1.572l-.558-1.097.294-.787.351.144.25.446.349.545.635-.08-.933-1.488-.019-.392 1.032-.123.04.376s.056.553.059.556l.258.159.416.198-.021 1.116h-.272a4.13 4.13 0 00-.315.022l-.692.545c-.041.012.569 1.4.616 1.408l.678.123.02 1.65c0-.063-.032 1.405 0 1.432l.932.8-.05.71-.699.658a.137.137 0 00-.042.101v2.468a.651.651 0 01-.179-.227.15.15 0 00-.179-.084l-.796.228c-.059.017-.209.068-.216.132-.061.6-.701.95-.774 1.008v-3.122c0-.028-.837-1.239-.853-1.263m3.471 8.368c1.382-.33 2.178-.317 3.969-.317 1.76 0 2.535-.012 3.916.317h-7.885m6.506 10.424h.003l-.005-.003v-.005l-.004.007.006.001m-1.586-.914h.001m-.355 1.468v-.004h-.001l.001.004m.067-1.196l.004-.003v-.001l-.004.004m5.153.642h.001l-.004-.003-.001-.007-.004.009.008.001m-1.942.554v-.004h-.001l.001.004m.067-1.196l.004-.003v-.001l-.004.004m.287-.272h.001m.519 3.115h.001l.004.004-.005-.004m-.572.912h.001l-.005-.003v-.003l-.002.006h.006m-1.942.555v-.003.003m-.001-.007l.002-.003v-.001l-.002.004m-7.044-11.312h.001l-.005-.003v-.004l-.004.006.008.001m-1.873-.641l.004-.005-.004.005m-.068 1.195v-.002l-.001-.002.001.004m.353-1.468h.002m4.864.914h.001l-.002-.003-.003-.005-.002.007.006.001m-1.873-.641l.004-.004v-.001l-.004.005m-.068 1.195v-.002l-.001-.002.001.004m.354-1.468h.001m.519 3.115h.002l.003.004-.005-.004m-.573.912h.002l-.004-.005v-.002l-.004.006.006.001m-1.941.548l.002-.003v-.001l-.002.004m.001.007v-.003.003m.353-1.469h.001"/><path d="M24.142 20.874l-4.782.007s-1.731.328-2.722 1.387l-.01 6.205h7.534l-.02-7.6zm-2.272 1.152l.242-.585.008-.019h.268l.009.02.213.475.005.008-.002.012-.187.88-.003.014-.011.008-.139.08-.01.007-.011-.001-.192-.03-.022-.003-.005-.022-.165-.825-.002-.01.004-.01zm.892 1.318l.03.003v.03l-.007.37-.001.029-.03.001-.542.024-.527-.001h-.028l-.003-.027-.041-.31-.004-.029.028-.006.506-.123.005-.002.005.002.334.024.275.015zm-2.044-.58l-.006-.014.01-.013.373-.455.004-.004.002-.002.008-.005.009.033.002-.003.007-.003v-.033h.097l-.016.012.335.05.02.004.005.016.26.704.005.015-.01.014-.083.118.006.04-.058.022-.117-.172-.193.024v.618l-.008.01-.278.301-.018.02-.022-.015-.31-.196.014-.003h-.049l.02-.043v-.012h.005l.176-.405-.19-.622zm-.352 1.698h.27l.005.023.187.654.001.006v.006l-.111.84-.003.022-.02.003-.178.055-.01.004-.01-.004-.18-.066-.016-.006-.004-.018-.22-1.034-.003-.013.006-.01.277-.447.009-.015zm.646 1.921l.024.007v.025l-.009.398-.029.002-.501.026-.568-.003-.028-.001-.003-.028-.042-.31-.003-.023.021-.009.28-.122.003-.002h.006l.475-.063h.012l.362.103zm-1.94-3.411l.236-.622.007-.017.018-.004.415-.064.012-.002.009.007.007.003.002.002-.014.025.017-.022.282.32.012.012-.174.852.024.076.18.26.017.025-.026.018-.354.264-.025.019-.02-.026-.33-.441-.01-.013.004-.014.133-.523-.095-.027-.153.115-.027.02-.151-.227.005-.016zm.105.375l-.001.03-.008.37-.001.028-.028.002-.457.046h-.004l-.61-.023h-.027l-.003-.027-.052-.39-.005-.038.036.002.546.011.301-.03h.006l.276.016.03.003zm-.956-1.462l.276-.447.01-.016h.265l.009.02.213.475.004.008-.003.01-.179.935-.002.01-.005.007-.139.14-.014.015-.02-.01-.137-.055-.016-.005-.005-.017-.261-1.046-.004-.013.008-.011zm-.46 1.845l-.008.01-.277.301-.017.02-.023-.015-.31-.196.014-.003h-.049l.02-.043v-.012h.005l.175-.405-.19-.622-.004-.015.01-.013.372-.455.002-.004h.003l.006-.006.012.033.002-.004.005-.003v-.002l.002-.031h.09l-.014.01.34.052.02.004.006.016.257.704.005.015-.008.014-.083.118.005.038-.057.024-.116-.172-.195.024v.618zm1.013 1.227l-.005.014-.012.005-.127.055-.02.007-.015-.014-.362-.332-.212.019-.02.002-.01-.016-.141-.231-.01-.014.008-.017.185-.418.007-.016.018-.003.193-.028.024-.004.01.022.121.276.331-.26.025-.019.019.025.195.237-.007-.216-.002-.026.026-.006.218-.054.032-.01.12.581.004.02-.017.012-.157.116-.008.006h-.01l-.148-.004-.213.17-.04.121zm.847 1.812l-.008.01-.277.302-.018.02-.023-.014-.31-.2.032-.013-.006-.004-.041-.005v-.037h.006l.002-.003.005-.016v.001l.169-.383-.191-.625-.005-.016.011-.012.373-.452.002-.004.006-.007.013.033.003-.003.006-.005v-.032h.083l-.012.01.347.052.018.003.006.016.258.702.006.017-.01.014-.083.117.007.043-.059.022-.115-.176-.195.024v.621zm1.586.823l-.199.112-.005.003h-.007l-.193.02-.13.145-.04.123-.003.014-.014.005-.126.057-.023.01-.015-.019-.356-.436-.123.114-.024.021-.021-.024-.214-.23-.015-.014.009-.019.185-.415.008-.016.016-.003.193-.028.025-.004.01.022.115.263.19-.256.021-.026.026.02.34.28-.009-.24-.001-.025.024-.006.22-.057.033-.009.119.584.004.023-.02.011zm.75-.71l-.355.26-.026.02-.019-.027-.33-.44-.009-.01.002-.016.135-.526-.098-.025-.15.113-.029.022-.019-.028-.123-.187-.009-.014.005-.014.236-.622.007-.017.018-.002.416-.065.012-.003.01.008.009.005-.012.019.013-.015.283.319.01.011-.002.015-.172.838.024.075.18.26.017.026-.024.02zm1.047-2.254l-.207.04-.007.002-.147-.004-.215.17-.038.121-.004.014-.014.005-.125.055-.022.009-.016-.018-.356-.435-.124.112-.023.02-.02-.022-.215-.226-.016-.016.01-.02.184-.418.007-.016.018-.003.193-.028.024-.004.01.022.12.276.332-.26.025-.019.019.025.196.237-.01-.242.026-.006.22-.054.03-.008.008.03.16.622.01.033-.033.006zm.708-.787l-.354.264-.025.019-.02-.026-.33-.441-.01-.013.004-.014.133-.523-.095-.027-.152.115-.027.02-.019-.028-.133-.199.006-.016.235-.622.006-.017.018-.004.415-.064.012-.002.009.005.007.004.002.001-.013.027.016-.022.284.32.01.012-.003.016-.171.836.024.076.179.26.018.025-.026.018zm7.971 4.632l-7.541.02-.012 10.862c-.001 0 3.33-2.015 4.642-3.075 1.183-.958 2.934-1.93 2.934-5.006 0-.222-.023-2.801-.023-2.801zm-2.254 1.042l.241-.583.01-.019h.267l.01.02.212.473.004.01-.002.01-.186.882-.003.014-.012.008-.138.082-.01.004h-.01l-.194-.03-.021-.002-.004-.023-.167-.825v-.01l.003-.01zm.893 1.32l.03.003v.03l-.009.37v.029l-.03.001-.542.024h-.554l-.004-.028-.04-.31-.004-.029.028-.006.505-.123.005-.002.005.002.334.025.276.014zm-2.045-.58l-.005-.014.01-.013.372-.456.004-.003.003-.002.006-.005.01.033.003-.003.005-.004.001-.031h.098l-.017.011.336.05.019.003.006.017.258.702.006.017-.01.014-.083.118.006.04-.059.022-.115-.174-.193.026v.617l-.01.01-.276.302-.02.02-.02-.015-.31-.195.013-.004h-.048l.018-.043v-.013h.006l.177-.404-.19-.622zm-.352 1.696h.27l.006.025.187.652v.013l-.11.84-.005.022-.019.006-.178.054-.01.004-.01-.004-.179-.067-.017-.007-.003-.016-.221-1.035-.003-.013.006-.01.277-.448.01-.016zm.647 1.923l.024.008-.001.024-.01.399-.029.002-.5.025-.568-.003-.028-.001-.003-.027-.042-.31-.003-.024.022-.009.28-.12.003-.003h.004l.476-.062.006-.002.007.002.362.101zm-1.94-3.411l.235-.622.007-.017.017-.003.417-.064.011-.003.01.007.007.003.001.002-.014.025.017-.022.283.32.01.012-.002.015-.172.836.026.077.179.26.016.025-.024.018-.356.263-.024.02-.02-.026-.33-.44-.01-.013.005-.015.133-.524-.095-.026-.154.115-.027.02-.152-.228.006-.015zm.103.375v.03l-.007.37-.002.028-.028.002-.457.046h-.005l-.608-.022-.027-.001-.004-.027-.057-.429.037.001.545.012.302-.027h.005l.276.014.03.003zm-.956-1.462l.277-.447.01-.016h.265l.01.02.211.473.004.01-.001.01-.182.945-.143.146-.016.016-.019-.01-.138-.055-.015-.005-.004-.017-.263-1.046-.003-.013.007-.011zm-.459 1.844l-.007.01-.278.302-.018.02-.022-.015-.31-.195.013-.004h-.047l.018-.043v-.013h.006l.175-.404-.189-.622-.005-.015.01-.013.372-.456.003-.003h.002l.007-.006.01.033.002-.004.007-.004v-.031h.091l-.014.01.34.052.02.002.005.017.259.702.005.017-.009.014-.084.118.007.04-.059.022-.115-.174-.195.026v.617zm1.013 1.228l-.004.014-.014.006-.126.054-.019.007-.015-.014-.363-.332-.213.02-.019.001-.011-.016-.14-.232-.009-.015.007-.014.185-.419.008-.016.016-.003.195-.028.022-.002.01.02.121.276.333-.26.024-.019.02.025.195.237-.01-.215v-.028l.025-.005.22-.054.031-.01.12.581.004.02-.017.012-.156.117-.009.005-.011-.001-.146-.002-.215.168-.04.122zm.847 1.814l-.008.009-.277.302-.018.019-.022-.013-.312-.2.033-.013-.006-.004-.042-.005v-.005l.001-.032h.007l.001-.002.005-.017.001.001.168-.385-.19-.623-.006-.017.01-.012.373-.452.004-.006.006-.005.011.033.004-.002.005-.005.002-.033h.082l-.011.01.345.052.02.003.005.017.258.703.005.015-.008.014-.083.118.005.042-.057.023-.117-.177-.194.024v.623zm1.586.821l-.198.112-.006.004h-.007l-.193.02-.13.144-.039.123-.005.014-.013.005-.125.057-.023.01-.015-.019-.356-.437-.124.115-.023.021-.022-.024-.213-.228-.016-.016.01-.019.184-.415.007-.017h.018l.193-.03.024-.004.009.023.116.263.191-.255.02-.028.025.021.341.28-.008-.239-.002-.025.024-.007.22-.057.032-.009.008.033.111.551.005.022-.02.011zm.75-.71l-.356.262-.024.018-.02-.026-.33-.44-.01-.012.004-.014.133-.527-.096-.025-.153.114-.026.022-.02-.03-.122-.185-.01-.014.006-.015.235-.621.007-.018.018-.002.415-.065.013-.002.01.007.01.005-.012.02.012-.018.282.32.012.012-.004.016-.17.839.024.073.179.26.018.027-.026.02zm1.047-2.255l-.207.042h-.007l-.146-.002-.215.168-.038.122-.004.014-.014.006-.127.054-.022.007-.015-.016-.357-.435-.123.112-.023.02-.021-.022-.215-.226-.014-.017.009-.018.184-.419.008-.016.017-.003.193-.028.025-.002.009.02.12.276.332-.26.025-.019.02.025.196.237-.01-.215-.001-.028.025-.005.22-.054.03-.008.009.03.161.622.008.033-.032.005zm.709-.786l-.356.263-.024.02-.019-.026-.331-.44-.01-.013.005-.015.133-.524-.095-.026-.153.115-.028.02-.017-.028-.134-.2.24-.637.008-.017.018-.003.415-.064.01-.003.01.005.008.005h.001l-.013.027.017-.022.283.32.01.012-.003.015-.17.836.023.077.18.26.017.025-.025.018zM18.724 18.384l.762.154.627-.503-.777-.147-.612.496m4.823-.72l.739.334.733-.334-.733-.332-.739.332m4.858.449l.602.478.019-.001.754-.142-.62-.484-.755.149"/><path d="M32.875 19.063c.84-1.321 1.863-2.525 2.33-3.084-.109-.126-.297-.347-.363-.407-.3.16-.665.465-.959.68-.766.561-1.337.959-1.838.998-.012.003-.332.064-.876-.18-1.204-.537-1.425-1.078-1.496-1.443l-.06-.044-.537-.127c-.144.227-.426.424-.805.553-.432.151-1.579.313-2.333-.282-.704-.555-1.084-1.652-1.152-2.058-.183-.003-.385-.03-.586-.03-.21 0-.428.027-.551.027l-.03.165a5.397 5.397 0 01-.072.333c-.031.126-.07.259-.118.391a6.171 6.171 0 01-.161.404c-.267.59-.68 1.05-1.443 1.163-.067.007-.13.01-.197.018a4.084 4.084 0 01-.339.026c-.495.011-.92-.069-1.248-.204a1.637 1.637 0 01-.299-.15 1.163 1.163 0 01-.383-.356l-.615.156a1.533 1.533 0 01-.403.734c-.14.147-.292.315-.504.453-.278.177-.625.371-1.047.449-.675.125-1.49-.425-2.342-1.035-.306-.221-.735-.533-.948-.648-.066.06-.294.28-.402.409a46.341 46.341 0 012.303 3.021c.485-.222 1.107-.639 1.884-.749l.04.278c-.639.118-1.326.57-1.667.814l.099.139a9.814 9.814 0 011.653-.745l.134.268c-.783.291-1.188.573-1.629.874.276.609.333.582.604 1.303 1.298-1.042 4.305-1.897 7.7-1.897 3.352 0 6.314.801 7.638 1.853.152-.405.291-.573.566-1.242a4.885 4.885 0 00-1.48-.902l.133-.236c.708.26 1.367.667 1.565.785l.093-.167c-.33-.232-.826-.6-1.557-.825l.016-.243c.716.217 1.317.518 1.682.76zm-13.314-.107l-1.663-.27-.046-.185 1.35-1.018 1.71.255.013.052.034.132-1.398 1.034zm2.85-1.153c-.407.031-.738.07-1.132.123-.006-.055-.059-.329-.059-.337.39-.047.896-.064 1.192-.077v.29zm3.445-.193v.157l-1.595.65-1.548-.645v-.21l1.591-.65 1.552.646v.052zm1.414.382l-1.048-.18c0-.033.003-.272 0-.285.36.037.765.081 1.119.135-.009.035-.061.284-.071.33zm3.305.752l-1.617.27-1.428-1 .049-.201 1.601-.267 1.401.963.043.03-.05.205zm-3.13 3.282l-.104.037-.127.335-.147.054.147-.222 3.056.03-.008-.06-1.436-.195-.005-.052.12-.263.812.093-.12.092-.4-.063-.03.016.009.026 1.432.297-.041.375-.488-.056.105.069-.04.065.623.232.25.075-.083.38-.063.227-.392-.113-.136-.071.145-.158-.055-.13-.235-.09.047-.025-.217-.052-.122-.164-.132.498-1.096.172.062-.247.595-.081-.173-.232.009-.127.428-.134-2.378.37-.105-.224-.149.32-1.335.26-.052-.16.097-.107.391-.059.243-.259-.632-.333-.355-.268.111-.052-.288-.109.053-.151.258-.091.513.538.177.008.019-.277.13-.093-.023-.317.208-.018.156-.161.372.047.4.598zm0 2.071l-.104.037-.127.335-.147.055.147-.222 3.056.03-.008-.062-1.436-.193-.005-.052.12-.263.812.091-.12.093-.4-.062-.03.015.009.027 1.432.297-.041.373-.488-.054.105.068-.04.065.623.233.25.074-.083.38-.063.228-.392-.113-.136-.072.145-.157-.055-.13-.235-.091.047-.024-.217-.052-.122-.164-.132.498-1.096.171.062-.246.595-.081-.173-.233.009-.127.428-.133-2.378.37-.105-.224-.149.319-1.335.261-.052-.161.097-.107.391-.058.243-.26-.632-.332-.355-.268.111-.052-.288-.11.053-.15.258-.092.513.539.177.007.019-.277.13-.092-.023-.318.208-.018.156-.161.372.047.4.598zm0 2.058l-.104.037-.127.335-.147.055.147-.223 3.056.03-.008-.06-1.436-.195-.005-.052.12-.263.812.093-.12.092-.4-.063-.03.016.009.026 1.432.297-.041.374-.488-.053.105.067-.04.065.623.232.25.075-.083.38-.063.227-.392-.113-.136-.071.145-.158-.055-.13-.235-.09.047-.025-.217-.052-.122-.164-.132.498-1.096.172.062-.247.595-.08-.173-.233.009-.127.428-.134-2.378.37-.105-.224-.149.32-1.335.26-.052-.16.097-.107.391-.059.243-.259-.632-.333-.355-.267.111-.053-.288-.109.053-.15.258-.092.513.538.177.008.019-.277.13-.093-.023-.317.208-.018.156-.161.372.047.4.598zm-7.744 3.765l-.104.037-.125.336-.149.054.149-.222 3.055.03-.008-.06-1.437-.195-.005-.052.12-.263.813.092-.12.092-.402-.062-.029.015.01.027 1.433.297-.042.374-.488-.055.105.069-.041.064.625.232.249.076-.083.38-.062.227-.394-.113-.136-.071.145-.158-.054-.132-.234-.089.047-.024-.217-.052-.124-.164-.13.498-1.098.172.063-.247.594-.081-.173-.233.01-.127.427-.133-2.376.37-.106-.224-.148.319-1.335.262-.052-.162.095-.106.393-.059.24-.259-.63-.333-.355-.268.112-.052-.29-.109.054-.151.258-.092.513.539.176.008.02-.277.129-.094-.022-.318.209-.016.156-.162.372.047.397.599zm0 2.143l-.104.038-.125.334-.149.055.149-.222 3.055.031-.008-.062-1.437-.193-.005-.052.12-.263.813.092-.12.091-.402-.062-.029.015.01.027 1.433.298-.042.374-.488-.055.105.069-.041.063.625.232.249.075-.083.38-.062.228-.394-.114-.136-.07.145-.157-.054-.132-.234-.089.047-.025-.217-.052-.124-.164-.13.499-1.098.17.063-.246.594-.08-.173-.234.01-.127.427-.133-2.376.37-.106-.224-.148.319-1.335.261-.052-.161.095-.107.393-.058.24-.26-.63-.33-.355-.269.112-.052-.29-.11.054-.15.258-.093.513.539.176.007.02-.277.129-.092-.022-.318.209-.018.156-.161.372.047.397.598zm.39 2.248l-.091.033-.113.3-.132.048.132-.2 2.726.03-.01-.056-1.28-.173-.005-.047.108-.235.724.083-.106.081-.357-.054-.027.012.009.026 1.276.265-.037.333-.434-.05.093.061-.036.059.557.206.222.068-.074.338-.056.203-.35-.101-.122-.063.13-.14-.049-.117-.21-.08.042-.022-.193-.047-.109-.146-.118.444-.978.154.056-.22.53-.073-.154-.209.007-.111.382-.12-2.119.33-.094-.2-.133.286-1.19.232-.046-.143.085-.096.35-.052.215-.231-.562-.296-.317-.24.1-.046-.258-.097.048-.135.23-.083.457.482.157.006.018-.246.114-.084-.019-.282.186-.017.14-.143.331.042.354.533zm6.362 10.163c.32-.279 1.019-.14.352.444-.801.705-1.256 1.072-1.8 1.693.124.11-.35-.265-.397-.343m-3.062 1.557c-1.005-.929-.185-2.244.804-2.732.975-.481 1.96-.652 2.953-.314-.56.49-.308.314-1.36.35-.66.02-1.343.259-1.822.732-.442.441-.69 1.292-.074 1.709.3.202.677.194 1 .057.212-.09.251-.43.794.043-.704.612-1.52.876-2.295.155"/><path d="M27.037 47.564c-1.47 1.913-3.287-.83-4.374-1.614.775-.552.734-.118 1.629.766.482.476 1.276 1.208 2.016.777.783-.46.265-1.147-.014-1.522.148-.134.519-.458.516-.458.655.557.596 1.569.227 2.051m-5.887-3.1c.39-.33.655.144.938.336-.326.166-.334.358-.814.078 0 0-.363-.212-.123-.414M45.196 30.8c-.024.01-.221.053-.289.073-1.233.333-1.964.86-2.579 1.767-.846 1.25-.82 2.672-.791 3.073 0 .02-.74.893-1.05 1.15l.586-.071c.294-.383.54-.712.769-1.011.514-.15 1.665-.58 2.493-1.648.665-.867.927-1.78.877-3.078a5.764 5.764 0 00-.016-.256zm-2.45 4.116l-.833.517.08-.676c1.448-1.673 2.91-3.551 2.91-3.551-.336.654-.686 1.8-2.157 3.71zm4.045 1.012c-1.256-.232-2.144-.072-3.09.478-1.304.762-1.895 2.055-2.044 2.428-.007.02-1.053.486-1.441.583l.559.19c.428-.218.793-.407 1.129-.58.528.088 1.752.2 2.96-.408.976-.491 1.607-1.202 2.124-2.394.015-.035.082-.2.094-.239-.026 0-.222-.048-.291-.058zm-3.697 2.71l-.974.106.362-.573c2.03-.883 4.162-1.943 4.162-1.943-.587.443-1.4 1.324-3.55 2.41zm1.943 1.992c-1.133-.588-2.03-.694-3.095-.443-1.468.348-2.412 1.413-2.662 1.728-.013.017-1.148.158-1.55.136l.48.347c.474-.085.878-.159 1.25-.228.479.24 1.618.702 2.95.472 1.076-.186 1.888-.682 2.729-1.672.025-.029.137-.165.16-.2-.024-.007-.198-.11-.262-.14zm-4.326 1.516l-.963-.184.515-.442c2.198-.253 4.547-.646 4.547-.646-.691.252-1.725.86-4.099 1.272zm-.191 2.024c-.952-.848-1.794-1.173-2.889-1.194-1.509-.026-2.686.773-3.006 1.018-.018.013-1.152-.132-1.536-.252l.38.454c.48.035.89.064 1.268.088.405.352 1.394 1.082 2.742 1.189 1.088.085 1.996-.196 3.057-.948a3.42 3.42 0 00.203-.155c-.022-.012-.165-.155-.218-.2zm-4.565.4l-.888-.414.607-.301c2.193.298 4.566.496 4.566.496-.732.074-1.884.407-4.285.22zM35.3 46.3c-.834-.964-1.628-1.394-2.71-1.555-1.493-.22-2.763.419-3.113.621-.019.009-1.125-.28-1.49-.45l.318.5c.471.097.875.179 1.246.251.356.401 1.243 1.254 2.566 1.533 1.068.225 2.005.063 3.153-.546.033-.017.188-.102.222-.127-.02-.015-.143-.175-.191-.226zm-4.578-.191l-.827-.527.642-.219A105.47 105.47 0 0035 46.444c-.735-.021-1.92.162-4.278-.335zM7.015 35.713c.028-.401.054-1.822-.792-3.073-.616-.907-1.347-1.434-2.58-1.767-.066-.02-.263-.063-.287-.074a3.802 3.802 0 00-.018.256c-.05 1.298.212 2.21.879 3.078.826 1.069 1.977 1.498 2.493 1.648.227.3.475.628.767 1.01l.587.072c-.31-.257-1.05-1.13-1.05-1.15zm-1.21-.797c-1.47-1.91-1.822-3.056-2.159-3.71 0 0 1.464 1.878 2.913 3.551l.08.676-.835-.517zm1.088 3.918c-.148-.373-.74-1.666-2.043-2.428-.946-.55-1.834-.71-3.09-.478-.068.01-.266.058-.292.058.013.04.08.204.095.24.517 1.19 1.149 1.902 2.124 2.393 1.208.607 2.431.496 2.96.408.336.173.7.362 1.13.58l.559-.19c-.39-.097-1.434-.563-1.443-.583zm-1.435-.196c-2.152-1.086-2.965-1.967-3.55-2.41 0 0 2.13 1.06 4.16 1.943l.364.573-.974-.106zm3.812 3.277c-.25-.315-1.192-1.38-2.66-1.728-1.067-.25-1.963-.145-3.096.443-.063.03-.237.133-.261.14.023.035.134.171.16.2.84.99 1.65 1.486 2.728 1.672 1.33.23 2.47-.233 2.95-.472.371.07.776.143 1.25.228l.479-.347c-.4.022-1.536-.12-1.55-.136zm-1.43.231c-2.374-.412-3.409-1.02-4.098-1.272 0 0 2.347.393 4.547.646l.514.442-.963.184zm6.086 1.848c-.32-.245-1.497-1.044-3.007-1.018-1.094.021-1.937.346-2.888 1.195-.055.044-.198.187-.22.2.032.028.174.133.204.154 1.061.752 1.97 1.033 3.058.948 1.347-.107 2.337-.837 2.742-1.19.377-.023.787-.052 1.266-.087l.38-.454c-.383.12-1.517.265-1.535.252zm-1.33.577c-2.402.187-3.553-.146-4.285-.22 0 0 2.373-.198 4.565-.496l.608.3-.887.416zm6.478.795c-.35-.202-1.62-.84-3.114-.621-1.082.161-1.876.59-2.71 1.556-.048.05-.172.21-.191.226.034.025.188.11.221.127 1.148.61 2.087.77 3.154.546 1.323-.28 2.21-1.132 2.566-1.533.371-.072.775-.154 1.245-.25l.318-.5c-.364.17-1.47.458-1.489.449zm-1.245.743c-2.358.497-3.543.314-4.277.335 0 0 2.325-.504 4.463-1.08l.641.218-.827.527z"/><path d="M24.814 43.338l-3.187-.215c-.006-.003-4.212-.389-4.212-.389a.136.136 0 00-.07.01l-1.418.675-.804-.27.767-.679 1.86-.288 6.705.315.359-.849c-.018-.107.006-.285-.055-.322l-.173-.092.915-.35.452.331-1.14 2.123zm8.406-.432l-1.135.414-1.108-.692c-.025-.013-.683.233-.71.236l-4.514.502.281-.841 4.833-.41 1.674.282.68.509zM15.66 23.884c.073-.036-.085-.389-.026-.445.018-.02.036-.315.026-.34-.076-.217-.316-.283-.398-.5.1-.24.198-.483.296-.72.01-.027.01-.205-.01-.222-.16-.167.569.108.272-.356.19.167-.827-.576-.708-.472.403.34.553.469.59.865.026.3.23.285.463 1.012 0 0-.02 1.164-.037 2.69-.047-.144-.035-.54-.076-.596-.133-.196-.128-.168-.261-.367-.078-.112-.124-.195-.209-.288-.08-.177.016-.06.078-.261zm-4.43 1.52l.222-.29-1.078.065.08.16.442.092.334-.027zm-.277 1.251l1.008.27-.31.45-.725.066-.496-.132-.367-.418.89-.236zm-.432-4.128l.11.3-.137.779-.06.045-.003-.367-.43-.031-.092-.373-.311.087-.002.322-.344-.111-.063-.266c-.01 0-.069-.057-.076-.06L9 22.713c-.018-.01-.054-.113-.054-.113l.077-.072.245.065c.012-.005.363-.006.462-.028l.297.055.19-.113c.011-.003.025-.008.039-.008l.166.003.098.026zm-1.425-.637l.243-.057c.039-.008.156-.064.358 0 .035-.028.101-.016.126-.018l.345.03h.141c.192.005-.055.069.146.077.034 0 .16.044.163.076l-.04.159-.112.147-.036-.062-.17-.085c-.387-.086-.4.066-.476.019l-.297-.08c-.104-.065-.258.16-.434.038l.043-.244zm-.364-1.659l.596.06c.016.009-.177.18-.179.198 0 .018-.062.273-.078.278l-.2.1-.237.178a.394.394 0 01-.159.02l-.025-.17c-.017-.012-.027-.026-.027-.047v-.372c0-.015.006-.026.016-.037l.225-.204c.018-.02.047-.02.068-.004zm-.837 1.086l-.01-.292.054-.53c.001-.026.033-.352.053-.37l.345-.344c.016-.02.313-.055.344-.053.099.005.527-.038.633 0l-.104.254-.153.032c-.055-.018-.225.018-.496 0l-.351.325.047.738c0 .01-.08-.001-.082.006l-.155.153-.028.109-.097-.028zm2.05-1.466c.14.055.281.185.402.273-.002-.006.326.07.326.065.023.022.059.173.086.196-.006 0-.052.14-.058.14.028.036.017.002.017.102.076.188.085.519.132.583-.063.022-.367.085-.357.153-.015-.106.033-.473.028-.724a2.146 2.146 0 01-.081-.234c-.137-.047-.296-.086-.405-.179.009.009.016.02.022.03l-.044-.045a.079.079 0 00-.023-.022c.003 0 .007 0 .01.003-.017-.02-.033-.038-.033-.051.017.02-.038-.306-.023-.29zM7.09 21.553c-.014.03-.336 1.388-.35 1.415-.044.103-.014.323-.077.106 0-.033-.066-.183-.106-.131.022-.186.045-.557.106-.708.079-.186.056-.407.127-.533l.01-.028.034-.059c.02-.041.037-.076.057-.123l.301-.453c-.017.044-.052.428-.102.514zm5.67-.905c-.015-.008-.392-.151-.218-.198.02-.006.024-.174.04-.18l.614-.047c.02-.01.04-.005.056.014l.144.162c.007.01.011.019.011.033l.108.434c0 .017-.104.208-.12.219-.016.008-.027-.164-.043-.174l-.195-.065s-.202-.165-.206-.165l-.19-.033zm-1.466 2.776l-.025-.954c0-.009 0-.014.004-.024l.092-.312c.005-.018.085-.164.224-.177a.827.827 0 00.279-.237l.932.198-.278.259c-.215-.108-.332-.123-.477-.08-.006.001-.252-.018-.308-.013-.073.042-.075.125-.148.151l-.078.278.127.122.345-.036c.013-.006.022-.006.032 0l.43.083.094-.011.191-.067.11.05a.076.076 0 01-.029.03l.036.12a.497.497 0 01-.074.049l-.101.043-.058.171-.05.203-.428-.002.04-.33-.325-.037-.047.388-.225.03-.089.147.03.288-.074.016-.151-.33-.001-.016zm2.782-2.347l.08.292-.132.106-.132-.16-.18-.18a.062.062 0 01-.005-.025l-.014-.82-.37-.225c-.27.02-.447-.008-.5.01l-.15-.043-.078-.25c.108-.037.667.005.768 0 .026 0 .246.06.264.078l.37.371c.02.02-.026.37-.026.396l.105.45zm-6.71 4.415c-.09.523.342.85.342.85-.028.168-.3.248-.392.392.094-.12-.256-.163-.334-.018.109-.173.29-.302.246-.502-.145-.65-.046-.613-.046-.828 0-.327-.043-.409.008-.473.076-.1.086-.187.113-.279.108-.026.498-.067.513-.087-.058.076-.273.489-.27.579.019.344-.15.202-.18.366zm8.448 1.957c.018.086.004.173-.015.389-.044.515-.34 1.34-.415 1.414-.027-.008-.163-.06-.144-.113.228-.532.026-.614.105-1.176-.218-.344.117-.652.117-1.084l.04-.267c0 .044.059.235.059.292 0 .095.025.005.025.1-.003-.063.05.157.05.1.107.18.154.259.173.336l.003-.016c0 .008 0 .017.002.025zm-2.901-2.03l-.022.221.028.049.656.06-.675.126.007.151-.068.1.474.24-.528-.105-.125.242a.047.047 0 01-.013.025l-.002.008-.004.005-.018.02-.06.134c.006.011-.107.269-.101.354.047.626-.334.803-.362 2.183-.002.113.244.301.246.41.006.153-.185.459-.191.57-.004-.044-.023.208-.035.191-.11-.175-.066-.413-.175-.582-.055-.082-.272-.499-.262-.602.036-.395.168-.68.119-1.124l.026-.323c-.018.022-.091.111-.12.116l-.298.023-.932-.02c-.025 0-.317-.2-.336-.221l-.588-.697-.035-.032-.002-.01-.42-.5c-.015-.012-.021-.031-.025-.048 0 0-.014.033-.023-.02l-.304-.013.306-.091a.037.037 0 01-.003-.015l-.136-.266-.001-.15-.332-.057.34-.025.007-.154c0-.137-.005-.142-.015-.22l-.49-.172.481.045c-.022-.137-.048-.213-.048-.283a5.65 5.65 0 00-.112-.391l-.169.165c-.009-.009-.052-.11-.06-.12 0 0-.101-.557-.162-.228l-.243-.606.046.012-.335-.348.04-.417-.026.136-.213-.513.04-.178c-.026-.171-.14-.23.04-.418.083-.086.105-.244.16-.336.041-.068.18.251.18.251 0 .083-.121.287-.121.287l.19.81.105.29.236.533s.331.003.328 0l.152.488.456.52-.2.014v.205l-.114.04.004.06.03-.003.006.05.685.064-.033.18-.496-.105c.012.137 0 .25 0 .245h.162l.263.038.012.14-.38.033.113.309.458-.163.046.139-.363.08-.113.083.056.113.118.08.183.027.819-.311.022-.535-.461-.178c-.022-.002-.041-.02-.053-.036l-.19-.291c-.004-.004.003-.012 0-.02-.001-.002-.005-.002-.005-.002a.11.11 0 01-.024-.08l.011-.974.253.243-.055.55 1.37-.059-.023-.575.162-.198.159.833c.033.223-.139.549-.139.549.07.067-.24.2-.264.21l-.212.028.036.58.71.274.24-.033.126-.06.078-.08.04-.159-.234-.06-.004-.198.337.12.087-.183-.169.004.023-.198h.178l.061-.197-.002-.024-.454.104.018-.221.457-.04-.074-.37-.195-.02.41-.54-.04-.449c0-.011.199-.114.204-.122l.082-.286.163-.245.263.425-.178.416-.02.377a.956.956 0 01-.12.18l-.198.119-.063.189-.015.306.668-.03-.695.158zm1.196-3.262c.036.086-.037.604-.04.614l-.137.596-.09.77-.256-.87.235-.496a.908.908 0 00.025-.729l.064-.138c.004.01.173.094.2.253zM21 38.83s-.363.119-.179.477l.002-.003 1.394.742.305.138 1.104-.55c-3.765-2.258-5.577-3.853-6.588-5.256l-.155-.234c-.114-.187-.73-1.259-.762-2.8-.005-.276-.01-.596-.013-.937-.01-1.335.024-2.635.04-4.128-.09-.073-.337-.261-.33-.304.016-.137-.097-.436-.08-.576-.119-.184.06-.495-.073-.687-.118-.173-.17-.21-.313-.427-.014-.025-.017-.06-.031-.087-.05-.057-.135.047-.16-.042.006.074-.28-.235-.277-.163.006-.227.218-.293.419-.395a.895.895 0 01.146-.283c-.088-.208-.417-.348-.417-.348 0-.025-.078-.27-.078-.262.009-.222-.148-.285-.052-.523-.014-.028.181-.482.182-.418-.372-.194-.03-.224-.34-.55l-.035-.354c-.025-.025-.144-.37-.24-.635-.25-.298-.378-.874-.42-1.125l-.532-.04c-.344.122-1.004.273-1.258.863-.01.04-.144.454-.144.454s-.088.254-.127.29c-.081.07.152.192.105.25 0 0-.37.332-.38.322v-.002c-.01-.009-.02-.018-.023-.03-.023-.098-.04-.167-.042-.236l-.004-.012.009-.02c.001-.045.18-.319.18-.319l.178-.916s.128-.837.625-.881l-.076-.315-.608.145a.145.145 0 01-.152-.052l-.307-.4-.36-.045-.089.316c-.014.051.02.778-.033.79-.052.012-.235-.4-.271-.438l-.136-.48-.129.293a.15.15 0 01-.124.093.145.145 0 01-.137-.071l-.21-.315-.406.144.005.155c0 .01.286.193.26.18.294.14.469.234.65.53.069.118.31.52.234.532.009-.046-.728-.325-.739-.35-.084-.228-.84-.35-1.147-.476l-.486.024-.49.254-1.393 2.214-.692 2.084.229.938c.058-.148.081-.24.178-.5-.008-.034.217-.642.205-.926.052.157.356.317.435.448.045.076.16.456.127.595.001.013-.356.464-.355.471-.002-.005-.261.446-.261.446.005.017-.136.352-.137.37l-.307 1.657c.054.163.345 1.089.345 1.091l.388 1.282.176-.226c.01-.016.034-.005.048-.016.151-.24.173-.473.217-.93.008-.102-.011-.276.065-.439.004-.073.093-.136.054-.222-.096-.225.227-.43.061-.606-.007-.007.162.153.155.148v.14c.06.067.154.531.04.773-.01.15.113.78.1.956-.02.305-.21.238-.22.73l.1 1.03.593-.875c.104-.104.345-.988.38-.961.035.024-.003 1.786 0 1.83l-.262.428.59.371c.248-.478.653-1.251.684-1.744.022-.342.21-.978.19-1.303-.018-.284.14-.43.114-.809.003.025.252.565.254.587.02.29-.017.22 0 .513.005.1-.053.399-.082.493-.094.269-.094.313-.144.595-.077.402-.315 1.235-.157 1.738.197.21.316.466.321.471l.321.324.39-.21.317-.252.312-2.365c.027-.03.346 1.87.386 1.865.027 0 .125-.162.165-.233l.371.254.168-.134c.067-.043.167.083.212.144 0 0 .597.728.593.72l.184-.198.153.24c.339-.734.18-.942.238-1.21.074-.376.276-.808.258-1.19-.018-.378-.06-.646-.093-1.022-.024-.268.24-.52.177-.78-.382-.45-.988-.765-.804-.808-.07-.102-.019-.315-.002-.294.142.202.35-.108.492.093.143.2.083.147.253.364.072.093.003.229.078.327.058.07.205.15.246.226.013.018.052.21.06.226-.004-.01-.032.194-.04.185.028.056-.084.11-.103.184-.097.422-.207.33 0 .74.174.343.188.76.083 1.13-.154.532-.006.946-.01 1.505l.092-.13.369-.59c.011-.013.07-.417.195-.414.003-.003.042-1.2.237-1.2.043 0 .307 1.759.334 1.792l.213-.572.084.256-.41 1.1-.425-.242-.186.078c-.005.007-.88.547-.88.547l-.615.587c-.03.007-.443-.366-.443-.366l-.332-.396-.353-.178-.375.044-.22-.11-.75.596-.597.419c-.032.021-.22-.221-.22-.221l-.816-.816-.117.085.69 5.413c.008.042.093.247.07.28-.025.03-.109.046-.148.05l-1.148.097-.395.614.264.188.273-.4c.013-.02.497-.107.497-.107l.19.193-.476.118-.258.358.198.159.268-.36c.013-.013.252-.052.276-.058l.162-.033.188.173-.417.138-.258.258.158.14 1.687-.695.075-1.022.158-1.069-.464-2.535 1.025-1.275.053 1.747.11 1.146.05 1.292c.1.295 0 .794 0 1.292l-.007.568c-.35.109-2.292.819-2.292.819l-.008.194.586.262.057-.347c.007-.038.823-.314.823-.314l.31.135-.872.317-.04.338.47.206.04-.335c.004-.037.74-.367.74-.367l.278.158-.754.357-.015.333.412.164.218-.278c.01-.017.17-.13.184-.137l1.407-.827.902-6.366-.13-.178.315-.284.32-.272 1.192 1.767-1.249.386-.34 2.774.472.698 1.852 1.45c.056.037 1.409.642 1.481.712.025.025-.047.277-.113.277l-2.243.249a.153.153 0 01-.1-.035l-1.112-.948-.913.655-.06.258.516-.377c.038-.028.437-.279.437-.258l.348.394.016.087-.41-.167-.827.599.22.292.64-.498a.116.116 0 01.132.003l.355.305-.057.156-.298-.12-.515.456.07.112 1.27.28 2.345-.359c.007-.002.794-.028.8-.028l2.843.248c-.178-.37-.255-.655-.258-.66-.035-.301-.614-1.358-.641-1.353l-.691-1.281-.784-.495.384.619.58.51.069.332-.412-.127-.198-.159-.992-.833-.338-.877-.205-.248v-.083l.06-.252-.135-.272.583.5 1.029.57 1.43.703c.009.007.88.23.79.41-.1.2-.916-.079-.91-.069zm18.149-.383l-.212.16.397.099.337.417-.257.203-.25-.338a.088.088 0 00-.065-.042l-.377-.103-.202.18.398.139.297.377-.377.18-.357-.359-1.33-.575-.437-.893.014-.913.053-1.323.18-.976v-.771l-.841-.502v3.612c0 .014.212 1.198.212 1.21l.303.576c.005.061.221.32.277.338l1.213.47.218.44-.318.18-.229-.384a.095.095 0 00-.056-.055l-.578-.217-.269.16.596.2.258.396-.422.18-.16-.3a.116.116 0 00-.047-.046l-.573-.247-.188.175.575.277.16.24-.403.188-2.25-1.498-1.003-5.835-.546-.163-.43 1.672.668.294.359 2.754-3.574 2.425c-.057.031.038.171.053.234.018.065.057.22.123.225l2.252-.178c.037 0 .108.1.136.075l1.15-.93 1.092.75-.083.227-.93-.613c-.04-.023-.09-.023-.123.009l-.293.316-.048.206.396-.258.814.536-.06.217-.73-.427c-.061.055-.462.384-.462.384l.028.155.37-.241.56.37-.086.13-1.189.301-1.897-.353c-.006-.003-1.823.282-1.829.282l-2.39.071.146-.827 1.242-2.173s.046-.152.105-.29l.53-.08-.133.397-.277.555.357-.079.556-.674.594-.914.24-.739.014-.007.007-.008.017-.015-.012.005.285-.396-1.007.68-1.647 1.035c-.018.013-.042.216-.052.234l-.861.52.278.438-.238.079-.22.144-3.428 1.503a.149.149 0 00-.078.18l.078.471-.616-.068-.342-.753 2.394-1.231c3.908-2.33 5.76-3.884 6.773-5.131.684-1.162.85-2.282.85-2.785 0-1.208.05-1.645.05-1.645.006.044.31.51.313.575.002.047.137.859.18.842l.53.224s.464-.488.496-.405l.256.684.197.315c-.07-.29.631-.08.631-.08.042.027.1.51.151.492l.916-.176s.727.234.75.197l.359-.298.556.159c.05.052.376.362.436.317l.806-.622 1.007-.477-1.674 5.8c-.005.039-.005.134.031.116.05-.029 1.33.11 1.33.11l.443.594-.283.19-.282-.387a.096.096 0 00-.062-.04l-.31-.046zM37.25 25.47l-.397-.12v-.257l1.09.146-.197.21-.496.021zm-.775 1.468l.16.398.634.118h.477l.476-.516-.874-.158-.873.158zm5.547-2.305c-.206-.096-.394.39-.457.206.005-.042-.157-1.343-.55-1.63.016.073.133 1.587.143 1.626.155.418.308.598.497.833.236.875.076.916.13 1.297 0 0-.013 1.157-.051 1.196-.018-.007-.047.205-.195.583-.04.1-.19-.731-.256-.665-.367.367-.117 1.474-.139 1.455-.001 0-.01.01-.015.013-.147-.26-.268-.676-.309-1.114a3.807 3.807 0 00-.198-.672c.008.153-.011.625 0 .804.027.393.012 1.159.05 1.593-.156.262-.108.324-.231.542l-.423-.124c-.094-.699.011-.826-.13-1.274-.085-.267.194-.75.146-1.027-.013-.097-.014-.219-.066-.304-.13-.215-.362-.366-.475-.52.071.167.141.332.203.44.167.278-.372 1.082-.232 1.39.217.496.023 1.19.057 1.783 0 0 .184.085-.093.261l-.217.504-.942-.01c-.092-.04-.155.057-.197.092l-.188.352-.582-.334c-.134-.068-.004-.27-.05-.265-.002 0-.07-.235-.07-.235.019-.38-.018-.315.015-.806.007-.14-.194-.437-.248-.551-.063-.143-.076-.854-.021-1.21-.061.201-.37.72-.367.857.003.157.222.92.243 1.075.032.237-.016.346.046.93.001.017-.28.44-.27.577l-.647-.332.06-.866-.35-.856c-.044-.042.046 1.656-.01 1.679l-.213.305-.587-.325-.136-.776c-.05-.037-.106.047-.155.036-.052-.01-.228-.015-.265.02 0 0-.478-.917-.464-1.227.014-.352.104-.614.134-.947.023-.271-.258-.532-.176-.796.03-.04.056-.081.088-.113.072-.091.083-.077.16-.173.175-.224-.105.346.12.024.08-.109-.277-.558-.33-.483 0 0 .126.011-.152.42-.081-.149-.375.025-.45-.057.068.148.129.444.197.587a.852.852 0 000 .22c.102.422.157.345-.05.759-.172.338.13.706.235 1.073.15.52.101.516.011.639l-.171-.098c-.037-.065-.272-.418-.343-.391l-.202-.137s-.078-.978-.178-.972l-.36.374-.033-.356.088-.34a.573.573 0 01-.138.153l-.022-4.077c.301-.27.398-1.02.41-1.041-.02.034-.43.425-.421.377l-.02-1.958v-.018l-.008-.064.504-.739v-.36c.071.037.181-.289.247-.257-.026-.042-.039-.014.072-.085.005.164.118.288.068.288-.02 0-.053.503-.037.512.136.087-.06.46-.02.56-.002-.14.316-.415.197-.52-.093.152.196-.431.295-.417l-.106-.705-.044-.215.296-.806s.933-.514.956-.55c.025-.04.387-.285.387-.285l.314-.058c.042 0 .081.062.136.164l.263.268c.162.355.325-.369.309.157-.002.033.45.244.453.288.047-.012.391.461.391.402 0-.306-.453-.806-.494-.985.01.008-.563-.32-.608-.368l.593-.34.377.377c.06.035.43.399.479.35l-.24-.906.091-.09c.046.039.238.264.291.24l.382.043.066.052c.036.068-.1.034-.06.104-.007.311.085.698 0 .758-.02.017.302.527.303.551.04-.158-.04-.594 0-.594l.158.001c.019-.044-.04-.409-.02-.45l-.039-.08c.043.035.1.042.153.022l.46-.21.16.295c.017.042-.628.98-.589.98l.795-.526 1.034.157c.003.015.558 1.091.567 1.104l1.014 2.09s.188.878.19.896l.076.956zm-9.305-1.192c.008-.041.623.283.623.243 0-.08-.42-.368-.279-.516.017-.014-.171-.754-.158-.774-.083.062-.042.372-.122.448-.09.085-.032.511-.064.599zm.197 3.415c.211-.309.229-.546.343-1.225.217-.491.2-.8.2-.8s-.305.198-.322.262c-.07.29-.216.491-.245.66-.133.305-.079.48-.276 1.044-.113.322-.04.652-.091.987 0 0 .128-.54.391-.928zm5.929-6.881l.126.121.153.018c.055-.02.151-.076.403-.012l.353.322.03.722a.04.04 0 00.006.021l.092.165.092.098.031-.08-.022-.227.076-.445c-.001-.024-.068-.455-.087-.472l-.386-.386c-.02-.018-.36-.003-.386 0-.099.005-.37.116-.481.155zm.809 3.128l.099.118.12-.1.138-.197-.032.124c.005-.02.149-.557.149-.76a.555.555 0 00-.117-.313c-.06-.085.06-.045.04-.104l-.156.009c0 .087-.175.038-.127.118.054.079.051.308.051.402 0 .187-.165.703-.165.703zm-.056-2.737l-.188-.104c-.015-.008-.033-.01-.047-.003l-.452.217a.05.05 0 00-.03.05c0 .02.012.037.031.044l.273.11.29.186a.05.05 0 00.053 0l.07-.037c.017-.007.027-.029.027-.047v-.372a.054.054 0 00-.027-.044zm-1.692 1.373c-.016 0-.185.222-.194.265-.006.033-.056.036-.058.067l-.034.432.08.02.166-.189.02-.158c.06-.1.066-.11.14-.16l.435.12c-.015 0 .257-.109.273-.109 0 0 .108.133.125.149l.2-.25s-.392-.201-.593-.142c-.033-.025-.169-.04-.19-.043h-.221l-.149-.002zm.96 1.237c.008 0 .01.029.016.026l.111-.092c.018-.01.044-.037.044-.037l.002-.17-.241.06c-.013-.002-.299-.095-.399-.12l-.264.06-.188-.11a.064.064 0 00-.037-.01h-.165l-.097.03-.02.913.159-.02h.179l.118-.06v-.357l.437.06-.04.297.298-.02.086-.45zm-1.426-2.63c0-.02.155.497.149.52l.198-.159c.04.08.152-.351.239-.45.073-.088-.012-.225-.07-.29.024.055.035.105.001.142-.278.325-.517.277-.517.238zm-1.464-.234c.009-.003.044.037.078.085a.262.262 0 00.031.048h-.006l.017.017v.002h.003l.034.034c-.007-.006-.016-.019-.024-.026.088.08.072.306.169.336.103.285-.043.252.04.536.008.027.317-.184.323-.158-.04-.14-.12-.458-.208-.573l.008.002a.519.519 0 01-.058-.057c.003.008.01.015.01.023-.092-.08.072.072-.029.04-.01-.018-.07-.152-.086-.172-.008-.04-.027-.14-.099-.236-.043-.056-.194-.085-.2-.209-.015.008-.119-.106-.14-.099-.094.027.228.38.137.407zm-.33 1.716l-.135.171-.172.18.21-.083c.135-.02.422-.04.471-.04.081-.053.576.048.583.078l.126.425-.252.12h-.274a.758.758 0 00-.133-.013l-.327.006-.324.024c.007.01.044.172.044.172.007.005.181.024.181.024l-.001.17.081.24.277.065v-.318l.476.02-.039.298.316.019s.219.146.219.14l-.064-.97c0-.01-.004-.13-.007-.137l.012-.184c-.007-.025.004-.306-.019-.316-.014-.01-.545-.267-.578-.251-.034.02-.71.165-.671.16zm-1.466-.564c-.001-.038.212 0 .235.024l-.103-.854.353-.325c.32.01.583.023.619.037l.28-.079.079-.081c-.037-.037-.707-.192-.753-.192a1.783 1.783 0 00-.318.1l-.258.178c-.017.017-.278.211-.278.238l-.174.68.12.436.198-.162zm.645 1.977s-.056-.11-.099-.159l-.118-.358-.116-.27c-.104-.211.195-.723.155-.723l-.355.276c-.003.007-.049.12-.074.282-.034.085-.062.204-.02.304.01.026.017.05.028.075.002.03.015.058.021.083.008.023.012.047.018.07.005.01.008.024.013.034.014.065.019.11.019.11l.048.225-.023.228.098-.15.05.373.355-.4zm-.079-2.346l.286-.172c.003 0 .255-.17.255-.17a.048.048 0 00.022-.046c0-.018-.013-.033-.03-.04l-.487-.198a.061.061 0 00-.057.01l-.145.163a.046.046 0 00-.014.032l-.014.437c0 .017.009.034.024.047a.06.06 0 00.049 0s.11-.06.111-.063zm5.661 1.443l-.387.766.014.37-.366.235-.208.617-.125.171c.003-.005-.28.286-.302.33l-.076.153.162.001.012.277-.007.163-.463-.01.019.179.416-.02-.043.219s.008-.025.004-.001l-.297-.02.005.16.264-.006c-.018.1.008.131-.011.243l-.398-.08-.019.179.283.08c-.004.018.027-.013.024 0l-.343.258-.185.025-.91-.343.02-.517.512-.16a.11.11 0 00.052-.043l.188-.288c.005-.005 0-.01 0-.015.002-.003.007-.003.007-.003a.11.11 0 00.024-.079l-.109-1.158-.179.18v.733l-1.171-.079.06-.754-.198-.159-.178 1.227c-.005.03.029.102.033.11l.137.256c.01.019.03.034.052.044l.471.188-.04.536-.882.334-.249-.035-.32-.193.055.023.587-.116-.033-.16-.625.185-.06-.256h.417l-.025-.178-.43.032-.084-.347.004-.053.724.165.009-.213-.734-.08.045-.374.2-.02-.276-.252-.31-.424.02.158-.077-.072-.027-.3c.002-.013.04-.051.036-.064l-.215-.503-.068.032-.145.166.085.35-.03.383c.027.053.08.057.096.072l.37.163.044.36.033.304-.423.001.427.1.023.251-.01.218-.394.046.397.079-.008.035.148.293-.278.148.337-.04.058.121.05.06.269.36.175.279.175.177.182.24c.014.02.04.035.067.038l.297.031c.023.003.047.013.07.013h.065l.37.036.28.015.402-.056a2.437 2.437 0 00-.168.26c.009-.016-.06.619-.06.619.1.159.172.597.172.636.076-.228.216.09.246.155.03-.006.048-.423.023-.522-.058-.216-.152-.364-.152-.616 0-.21.094-.355.138-.437.03-.015.126-.442.139-.456l.345-.396.037-.037.001-.01.426-.503a.194.194 0 00.021-.044l.064-.103.475.021-.416-.16.036-.166-.005-.159.425-.07-.317-.062.04-.06c0-.092-.005-.114 0-.18l.475-.114-.515-.024c.021-.183.032-.23.032-.309 0-.019.036-.104.092-.282l.054-.235a.059.059 0 00.021-.023l.198-.124c0-.005.027-.005.12-.239l.205-.165.154-.559.098-.203.038-.525v-.405zm.706 3.954c-.038-.17-.407-.008-.562-.319a.413.413 0 01-.051-.28c-.008.026-.06.046-.066.076l-.022.025c-.046.18-.009.243-.057.426-.02.08.456.264.517.341.112.145.005.6.05.775.049.2.116.235.08.444.003-.03.062-.05.068-.082.028-.165.09-.596.05-.76-.075-.31.094-.233-.007-.646zm.379-3.378c-.023-.182-.217-.42-.278-.568-.08-.19-.552-.798-.623-.925.282.689.393.97.583 1.429 0-.032.278.013.318.064z"/></g></svg>